<?xml version="1.0" standalone="no"?>
<!DOCTYPE svg PUBLIC "-//W3C//DTD SVG 20010904//EN"
 "http://www.w3.org/TR/2001/REC-SVG-20010904/DTD/svg10.dtd">
<svg version="1.0" xmlns="http://www.w3.org/2000/svg"
 width="751.000000pt" height="751.000000pt" viewBox="0 0 751.000000 751.000000"
 preserveAspectRatio="xMidYMid meet">
<metadata>
Created by potrace 1.11, written by Peter Selinger 2001-2013
</metadata>
<g transform="translate(0.000000,751.000000) scale(0.100000,-0.100000)"
fill="#000000" stroke="none">
<path d="M5565 5599 c-54 -28 -98 -62 -146 -112 -32 -34 -39 -48 -37 -73 2
-25 -20 -66 -127 -227 -71 -107 -137 -198 -145 -200 -8 -3 -49 -15 -90 -26
-41 -12 -91 -28 -110 -35 -49 -20 -73 -29 -86 -31 -25 -6 -95 -42 -200 -106
-137 -82 -217 -121 -404 -195 -109 -43 -393 -104 -555 -119 -38 -4 -86 -9
-105 -11 -43 -5 -424 -5 -500 0 -49 3 -99 8 -220 21 -19 2 -66 7 -105 10 -61
6 -365 56 -420 68 -11 3 -50 12 -87 21 -88 20 -167 46 -368 118 l-165 60 -126
2 c-69 2 -154 0 -190 -5 -35 -4 -89 -9 -119 -13 -87 -8 -201 -35 -246 -57 -49
-23 -63 -50 -59 -115 9 -178 264 -503 547 -701 70 -49 71 -49 -82 -57 -52 -3
-119 -8 -147 -12 l-53 -7 -21 -56 c-23 -60 -31 -182 -16 -256 11 -59 89 -211
144 -282 87 -113 307 -249 563 -349 87 -33 283 -88 355 -99 126 -19 115 -13
165 -101 88 -157 226 -316 360 -413 30 -22 60 -44 65 -48 65 -51 271 -154 385
-192 36 -12 74 -26 85 -31 11 -4 31 -11 45 -14 67 -14 219 -45 255 -52 56 -9
444 -13 502 -4 27 4 75 11 108 14 33 4 98 14 145 23 47 8 96 17 110 20 140 25
453 121 635 196 267 109 415 185 599 304 142 92 298 257 467 493 79 110 169
254 169 270 0 6 5 10 10 10 6 0 10 4 10 10 0 5 20 51 45 101 56 115 111 279
129 388 31 184 11 331 -73 541 -60 149 -117 226 -202 270 -20 11 -51 31 -68
46 -52 43 -134 222 -194 419 -26 89 -30 113 -28 215 3 172 -4 208 -48 248 -41
38 -262 152 -294 152 -12 0 -40 -9 -62 -21z m-28 -751 c-6 -103 -27 -228 -37
-228 -4 0 -12 24 -18 54 -10 49 -9 86 4 144 6 29 46 122 52 122 3 0 2 -42 -1
-92z"/>
</g>
</svg>
